<svg width="44" height="44" viewBox="0 0 44 44" fill="none" xmlns="http://www.w3.org/2000/svg">
<path d="M33.2431 11.9625C33.2431 15.8767 29.2098 16.7292 29.2098 16.7292V20.3958L26.7623 16.7292H23.5814L21.9956 20.3958L20.4098 16.7292H17.229L14.6623 20.3958L14.4148 16.8483C12.0956 16.4817 10.2623 14.4008 10.2623 11.9625C10.2623 8.29583 13.1956 7.19583 14.1764 7.19583H29.0906C30.0715 7.19583 33.2431 8.04833 33.2431 11.9625ZM14.5431 24.1817C13.4431 24.1817 12.5906 25.0342 12.5906 26.1342C12.5906 27.2342 13.4431 28.0867 14.5431 28.0867C15.6431 28.0867 16.4956 27.2342 16.4956 26.1342C16.3764 25.0342 15.5148 24.1817 14.5431 24.1817ZM29.2098 23.5675C28.1098 23.5675 27.2573 24.42 27.2573 25.52C27.2573 26.62 28.1098 27.4725 29.2098 27.4725C30.3098 27.4725 31.1623 26.62 31.1623 25.52C31.1623 24.42 30.3098 23.5675 29.2098 23.5675ZM43.9956 21.9908C43.9956 34.1367 34.1414 43.9908 21.9956 43.9908C9.84977 43.9908 -0.00439453 34.1367 -0.00439453 21.9908C-0.00439453 9.845 9.84978 0 22.0048 0C34.1598 0 44.0048 9.85417 44.0048 22L43.9956 21.9908ZM43.0789 21.9908C43.0789 10.3675 33.6189 0.9075 21.9956 0.9075C10.3723 0.9075 0.912272 10.3675 0.912272 21.9908C0.912272 30.085 5.50479 37.1342 12.2148 40.6633V39.7833L12.334 31.8358C12.334 31.8358 12.2148 35.3833 12.2148 36.1167C12.2148 36.6025 11.7289 36.9692 11.2339 36.9692C10.7389 36.9692 10.3815 36.4833 10.3815 36.1167C10.3815 35.3833 10.5006 31.4692 10.5006 30.7358C10.5006 29.6358 11.234 28.7833 12.334 28.7833H16.8531C16.9723 28.7833 17.1006 28.9025 17.2198 28.9025C17.4673 27.9217 18.3198 27.0692 19.4198 27.0692H21.2531C20.6389 26.8217 19.9056 25.9692 19.9056 24.9883C19.9056 23.7692 20.8865 22.7883 22.1056 22.7883C23.3248 22.7883 24.3056 23.7692 24.3056 24.9883C24.3056 26.0883 23.939 26.9408 22.9581 27.1883H24.5439C25.5248 27.3075 26.1298 27.9217 26.4964 28.655C26.6156 28.5358 26.8631 28.5358 27.1106 28.5358H31.5106C32.4914 28.5358 33.2248 29.15 33.3439 30.1217V35.6217C33.3439 36.1075 32.8581 36.355 32.4914 36.355C32.0056 36.355 31.7581 35.8692 31.7581 35.5025V40.6542C38.4681 37.125 43.0606 30.085 43.0606 21.9817L43.0789 21.9908Z" fill="#F99E49" style="fill:#F99E49;fill:color(display-p3 0.9765 0.6196 0.2863);fill-opacity:1;"/>
</svg>
