<svg width="44" height="44" viewBox="0 0 44 44" fill="none" xmlns="http://www.w3.org/2000/svg">
<g clip-path="url(#clip0_3442_18396)">
<path d="M33.2406 11.9552C33.2406 15.8702 29.2081 16.7229 29.2081 16.7229V20.3903L26.7611 16.7229H23.5809L21.9954 20.3903L20.4099 16.7229H17.2298L14.6636 20.3903L14.4162 16.8421C12.0975 16.4753 10.2645 14.3941 10.2645 11.9552C10.2645 8.2878 13.1972 7.18757 14.1779 7.18757H29.089C30.0696 7.18757 33.2406 8.04025 33.2406 11.9552ZM14.5445 24.1769C13.4447 24.1769 12.5924 25.0296 12.5924 26.1298C12.5924 27.2301 13.4447 28.0828 14.5445 28.0828C15.6443 28.0828 16.4966 27.2301 16.4966 26.1298C16.3774 25.0296 15.516 24.1769 14.5445 24.1769ZM29.2081 23.5626C28.1083 23.5626 27.256 24.4153 27.256 25.5156C27.256 26.6158 28.1083 27.4685 29.2081 27.4685C30.3079 27.4685 31.1602 26.6158 31.1602 25.5156C31.1602 24.4153 30.3079 23.5626 29.2081 23.5626ZM43.9908 21.9857C43.9908 34.134 34.1387 43.9902 21.9954 43.9902C9.85211 43.9902 0 34.134 0 21.9857C0 9.83729 9.85212 -0.00976562 22.0046 -0.00976562C34.1571 -0.00976562 44 9.84645 44 21.9948L43.9908 21.9857ZM43.0743 21.9857C43.0743 10.3599 33.6163 0.897924 21.9954 0.897924C10.3745 0.897924 0.916476 10.3599 0.916476 21.9857C0.916476 30.0815 5.50803 37.1321 12.2166 40.662V39.7819L12.3358 31.8327C12.3358 31.8327 12.2166 35.3809 12.2166 36.1144C12.2166 36.6004 11.7309 36.9671 11.236 36.9671C10.7411 36.9671 10.3837 36.4812 10.3837 36.1144C10.3837 35.3809 10.5028 31.466 10.5028 30.7325C10.5028 29.6322 11.236 28.7796 12.3358 28.7796H16.854C16.9731 28.7796 17.1014 28.8988 17.2206 28.8988C17.468 27.9177 18.3203 27.065 19.4201 27.065H21.2531C20.639 26.8175 19.9058 25.9648 19.9058 24.9838C19.9058 23.7644 20.8865 22.7833 22.1054 22.7833C23.3243 22.7833 24.3049 23.7644 24.3049 24.9838C24.3049 26.084 23.9384 26.9367 22.9577 27.1842H24.5432C25.5238 27.3034 26.1287 27.9177 26.4953 28.6512C26.6145 28.532 26.8619 28.532 27.1094 28.532H31.5084C32.4891 28.532 33.2222 29.1463 33.3414 30.1182V35.6193C33.3414 36.1053 32.8557 36.3528 32.4891 36.3528C32.0033 36.3528 31.7559 35.8669 31.7559 35.5001V40.6529C38.4645 37.123 43.056 30.0815 43.056 21.9765L43.0743 21.9857Z" fill="#99968D" style="fill:#99968D;fill:color(display-p3 0.6018 0.5874 0.5513);fill-opacity:1;"/>
</g>
<defs>
<clipPath id="clip0_3442_18396">
<rect width="44" height="44" fill="white" style="fill:white;fill-opacity:1;" transform="translate(0 -0.00976562)"/>
</clipPath>
</defs>
</svg>
