<svg width="44" height="44" viewBox="0 0 44 44" fill="none" xmlns="http://www.w3.org/2000/svg">
<path d="M29.0125 19.1033C28.5542 18.645 28.215 17.8475 28.4442 17.1692C28.5542 16.6008 29.4708 13.75 30.8367 12.265C31.1758 11.8067 31.7442 11.6967 32.2025 11.6967C32.5417 11.2383 32.89 10.8992 33.2292 10.56C33.4583 10.3308 33.9167 10.3308 34.1367 10.67C34.3658 11.0092 34.3658 11.4675 34.0267 11.6967C33.7975 11.8067 33.5683 12.0358 33.3392 12.3842C33.9075 13.0717 33.9075 14.2083 33.2292 14.8958C32.6608 15.4642 32.0925 17.1783 31.7442 18.205C31.515 18.8925 30.9467 19.3417 30.2592 19.4608C29.6908 21.5142 29.1225 23.6775 28.545 25.7308C30.7083 22.0825 33.33 18.8925 35.7317 18.8925C35.8417 18.8925 35.8417 19.0025 35.8417 19.1217C35.8417 19.2744 35.805 19.3508 35.7317 19.3508C33.7975 19.3508 32.5417 24.365 31.3958 28.0133H31.2858C30.1492 28.0133 29.3517 28.8108 28.2058 28.8108C27.6375 28.8108 27.1792 28.5817 26.6108 28.3525C27.0692 25.96 27.9767 22.4217 29.0033 19.1217L29.0125 19.1033ZM8.03917 22.8617C9.405 23.0908 10.6608 25.7125 11.7975 27.995H12.485C13.6217 27.995 14.4192 28.7925 15.565 28.7925C16.2525 28.7925 16.7017 28.5633 17.2792 28.3342C16.8208 26.2808 16.1425 23.32 15.2258 20.6983C15.6842 20.24 15.9133 19.5617 15.6842 18.8742C15.455 18.1867 14.6575 15.7942 13.6308 14.7675C13.1725 14.3092 12.6042 14.1992 12.0358 14.3092C11.5775 13.7408 11.0092 13.2825 10.5508 12.9433C10.2117 12.7142 9.75334 12.9433 9.64334 13.2825C9.53334 13.6217 9.64333 14.08 9.9825 14.19C10.3217 14.4192 10.67 14.7583 11.0092 15.0975C10.5508 15.785 10.67 16.6925 11.2383 17.2608C11.5775 17.6 12.0358 18.8558 12.375 19.8825C12.6042 20.57 13.2825 21.0192 13.97 21.1383C14.7675 23.3017 15.3358 25.5842 15.7942 27.5183C13.4017 24.6675 10.3217 22.385 8.15833 22.385C8.04833 22.385 8.04833 22.495 8.04833 22.6142C7.81917 22.7242 7.93833 22.8433 8.04833 22.8433L8.03917 22.8617ZM17.4992 12.2558C20.1208 12.9433 17.7283 22.0642 18.5258 27.9858H18.755C19.8917 27.9858 20.5792 28.7833 21.7158 28.7833C22.4033 28.7833 22.8525 28.5542 23.43 28.325C23.43 23.54 24.2275 18.865 25.025 15.2167C25.5933 15.1067 26.1617 14.6483 26.3908 13.8508C26.3908 13.8508 26.9592 11.3392 27.7567 9.17583C27.9858 8.48833 27.7567 7.69083 27.4175 7.24167C27.7567 6.44417 27.8758 5.87583 27.8758 5.87583C27.9858 5.53667 27.8758 5.07833 27.5367 4.96833C27.1975 4.73917 26.8492 4.96833 26.7392 5.3075C26.7392 5.3075 26.51 5.87583 26.1708 6.7925C25.4833 6.7925 24.915 7.25083 24.6858 7.92917C23.8883 10.2117 23.2008 12.8333 23.2008 12.9433C23.0908 13.6308 23.3108 14.4283 23.7692 14.7675C23.0817 18.0767 22.4033 21.835 22.1742 25.9417C21.0375 18.8742 21.2667 11.4583 17.4992 11.8067C17.3892 11.8067 17.3892 11.9167 17.3892 12.0358C17.2792 12.1458 17.3892 12.265 17.4992 12.265V12.2558ZM38.5 36.5108C38.4633 36.5567 38.4175 36.6025 38.3808 36.6483C38.0508 37.0242 37.7025 37.3817 37.345 37.73C37.29 37.785 37.235 37.84 37.1708 37.895C36.8225 38.225 36.465 38.5458 36.0983 38.8575C36.0708 38.8758 36.0525 38.9033 36.025 38.9217C35.64 39.2425 35.2458 39.545 34.8425 39.8383C34.7692 39.8933 34.6867 39.9483 34.6042 40.0033C33.7883 40.5808 32.9267 41.1033 32.0375 41.5617C31.9458 41.6075 31.8542 41.6533 31.7625 41.6992C31.3225 41.9192 30.8733 42.13 30.415 42.3225C30.3508 42.35 30.2867 42.3683 30.2225 42.3958C29.8008 42.57 29.3792 42.7258 28.9483 42.8633C28.8567 42.8908 28.7742 42.9275 28.6825 42.955C28.215 43.1017 27.7383 43.2392 27.2525 43.3583C27.1517 43.3858 27.0508 43.4042 26.9592 43.4225C26.51 43.5233 26.0608 43.615 25.6117 43.6883C25.5475 43.6975 25.4742 43.7158 25.41 43.725C24.915 43.8075 24.4017 43.8625 23.8975 43.9083C23.7783 43.9175 23.6592 43.9267 23.5492 43.9358C23.0267 43.9725 22.5042 44 21.9725 44C21.4408 44 20.9 43.9725 20.3775 43.9358C20.2583 43.9358 20.1483 43.9175 20.0383 43.9083C19.525 43.8625 19.0117 43.8075 18.5075 43.725C18.4342 43.7158 18.3517 43.6975 18.2783 43.6883C17.8108 43.6058 17.3525 43.5142 16.9033 43.4133C16.8208 43.395 16.7383 43.3767 16.6558 43.3583C16.1608 43.2392 15.675 43.0925 15.1983 42.9367C15.1067 42.9092 15.0242 42.8725 14.9325 42.845C14.4558 42.68 13.9792 42.5058 13.5117 42.3133C13.5025 42.3133 13.4933 42.3133 13.4842 42.3042C13.0075 42.1025 12.5308 41.8825 12.0725 41.6442C11.9992 41.6075 11.9258 41.5708 11.8525 41.525C11.3942 41.2867 10.9358 41.03 10.4958 40.755C10.4958 40.755 10.4867 40.755 10.4775 40.7458C10.0283 40.4708 9.5975 40.1775 9.16667 39.8658C9.13 39.8383 9.09333 39.8108 9.0475 39.7833C8.61666 39.4717 8.20416 39.1417 7.80083 38.8025C7.77333 38.7842 7.75499 38.7567 7.72749 38.7383C6.90249 38.0325 6.1325 37.2717 5.4175 36.4558C5.39917 36.4375 5.38084 36.4192 5.36251 36.3917C4.63834 35.5575 3.97833 34.6683 3.39166 33.7333C1.24666 30.3325 0 26.3175 0 22C0 9.85417 9.85417 0 22 0C34.1458 0 44 9.85417 44 22C44 24.6217 43.5417 27.1425 42.6983 29.48C42.5242 29.975 42.3225 30.4608 42.1117 30.9375C42.0842 31.0108 42.0475 31.075 42.02 31.1483C41.5892 32.0925 41.0942 32.9908 40.5442 33.8525C40.5075 33.9167 40.4617 33.9808 40.425 34.045C40.15 34.4667 39.8567 34.8883 39.545 35.2917C39.5175 35.3283 39.49 35.365 39.4625 35.4017C39.1692 35.7867 38.8667 36.1533 38.5458 36.5108H38.5ZM0.880006 22.0092C0.880006 24.6767 1.38417 27.225 2.29167 29.5717C2.64917 29.6908 3.01584 29.7733 3.42834 29.7733C4.08834 29.7733 4.62917 29.5533 5.1425 29.3425C5.60083 29.1592 6.03167 28.9758 6.50834 28.9758C6.98501 28.9758 7.41583 29.15 7.87416 29.3425C8.3875 29.5533 8.92834 29.7733 9.58834 29.7733C10.2483 29.7733 10.78 29.5533 11.3025 29.3425C11.7608 29.1592 12.1917 28.9758 12.6683 28.9758C13.145 28.9758 13.5758 29.15 14.0342 29.3425C14.5475 29.5533 15.0883 29.7733 15.7483 29.7733C16.4083 29.7733 16.94 29.5533 17.4625 29.3425C17.9208 29.1592 18.3517 28.9758 18.8283 28.9758C19.305 28.9758 19.6625 29.15 20.0842 29.3517C20.5517 29.5717 21.0925 29.8192 21.7892 29.8192C22.4858 29.8192 23.045 29.59 23.6133 29.37C24.145 29.1683 24.6583 28.9667 25.1992 28.9667C25.74 28.9667 26.1433 29.15 26.565 29.3425C27.005 29.5442 27.5092 29.7642 28.1692 29.7642C28.8292 29.7642 29.3792 29.5258 29.865 29.315C30.2958 29.1225 30.7083 28.9483 31.185 28.9483C31.6067 28.9483 31.9092 29.095 32.2942 29.2875C32.78 29.5258 33.3208 29.7825 34.1917 29.7825C35.0167 29.7733 35.6492 29.5533 36.1992 29.3517C36.6575 29.1867 37.0608 29.0492 37.5283 29.0217C38.1608 29.0033 38.6192 29.1683 39.16 29.37C39.6917 29.5717 40.2875 29.8008 41.0667 29.8008C41.25 29.8008 41.415 29.7917 41.5708 29.7733C42.5242 27.3717 43.065 24.75 43.065 22C43.065 10.3767 33.605 0.916667 21.9817 0.916667C10.3583 0.916667 0.898329 10.3767 0.898329 22L0.880006 22.0092Z" fill="#6EAA3B" style="fill:#6EAA3B;fill:color(display-p3 0.4314 0.6667 0.2314);fill-opacity:1;"/>
</svg>
