<svg width="44" height="44" viewBox="0 0 44 44" fill="none" xmlns="http://www.w3.org/2000/svg">
<g clip-path="url(#clip0_3442_18383)">
<g clip-path="url(#clip1_3442_18383)">
<path d="M10.3858 11.1673H11.605C11.8525 11.2865 12.0908 11.5341 12.0908 11.7725V12.8727C12.0908 13.3586 12.4575 13.4778 12.9433 13.4778H15.1342C15.9867 13.4778 16.1058 13.9637 16.1058 14.4497V16.7602C16.1058 16.8794 16.225 17.0077 16.3533 17.0077H17.5725C17.6917 17.0077 17.82 16.8885 17.82 16.641V9.4528C17.82 9.08606 17.82 8.48093 16.8483 8.48093H10.5142C10.1475 8.48093 9.90916 8.60013 9.90916 8.96687V10.3055C9.90916 11.039 10.2758 11.1582 10.395 11.1582L10.3858 11.1673ZM8.04833 28.6701C7.77333 28.5601 7.50749 28.4501 7.24166 28.3859C6.74666 27.194 6.3525 25.9287 6.26084 25.7087C6.1325 25.4061 6.1325 24.9294 6.61833 24.9294H9.295C9.295 24.9294 9.78083 24.9294 9.78083 24.5626C9.78083 24.0767 10.1475 24.0767 10.5142 24.0767H13.1908C13.4383 24.0767 13.5575 23.9575 13.5575 23.5907V22.2521C13.5575 21.8854 13.4383 21.647 14.0433 21.647H15.5008V18.3555C15.5008 18.1079 15.62 17.9887 15.8675 17.9887H17.5725C17.82 17.9887 18.0583 18.2363 18.0583 18.4747V21.6378H20.735C21.1017 21.6378 21.2208 21.8854 21.2208 22.243V24.6818C21.2208 25.2869 21.34 25.2869 21.8258 25.2869H24.8692C24.2642 25.0394 23.8975 24.4343 23.8975 23.7008C23.8975 22.7289 24.6308 21.9954 25.4833 21.8762C25.3642 21.6287 25.2358 21.3903 25.2358 21.0235C25.2358 20.0517 26.0883 19.199 27.06 19.199C27.7933 19.199 28.2792 19.5657 28.6458 20.1709C28.8933 19.5657 29.4983 19.199 30.2317 19.199C31.3317 19.199 32.0558 20.0517 32.0558 21.0235C32.0558 21.2711 32.0558 21.5095 31.9367 21.757H32.0558C33.1375 21.757 33.88 22.5364 33.88 23.5082C33.88 24.3609 33.3942 25.0486 32.6608 25.2869H34.485C34.8517 25.2869 34.8517 25.1677 35.2183 24.6818C35.4658 24.3151 35.7042 24.1959 35.9517 24.1959C36.1992 24.1959 38.7933 24.2967 38.7933 24.2967L37.2258 28.3676C37.1433 28.3676 37.0608 28.3584 36.9783 28.3676C36.52 28.3859 36.135 28.5326 35.6858 28.6885C35.145 28.881 34.5308 29.1011 33.7242 29.1102C32.8442 29.1011 32.34 28.8627 31.8725 28.6243C31.4967 28.4409 31.2033 28.3034 30.7908 28.3034C30.3325 28.3034 29.9383 28.4776 29.5075 28.661C29.04 28.8627 28.4992 29.1011 27.8483 29.1011C27.1975 29.1011 26.7117 28.881 26.2808 28.6885C25.8683 28.5051 25.4742 28.3217 24.9517 28.3217C24.4292 28.3217 23.925 28.5143 23.4025 28.716C22.8433 28.9269 22.275 29.1469 21.615 29.1469C20.955 29.1469 20.405 28.8994 19.9467 28.6885C19.5342 28.4959 19.1767 28.3217 18.7275 28.3217C18.2783 28.3217 17.8475 28.4959 17.3983 28.6793C16.8942 28.8902 16.3717 29.1011 15.7208 29.1011C15.07 29.1011 14.5475 28.881 14.0433 28.6793C13.6033 28.4959 13.1817 28.3217 12.7142 28.3217C12.2467 28.3217 11.8342 28.4959 11.385 28.6793C10.8808 28.8902 10.3583 29.1011 9.7075 29.1011C9.05666 29.1011 8.53416 28.881 8.02999 28.6793L8.04833 28.6701ZM7.82833 28.8994V28.9544C7.82833 28.9544 7.82833 28.8902 7.82833 28.8994ZM44 21.9954C44 34.1438 34.1458 44 22 44C9.85417 44 0 34.1438 0 21.9954C0 9.84705 9.845 0 22 0C34.155 0 44 9.85622 44 22.0046V21.9954ZM0.916667 21.9954C0.916667 24.7918 1.46666 27.4599 2.45666 29.8987C2.84166 30.0363 3.24499 30.1463 3.70333 30.1463C4.35416 30.1463 4.87666 29.9262 5.38999 29.7154C5.83916 29.532 6.25167 29.3578 6.71917 29.3578C7.18667 29.3578 7.60833 29.532 8.04833 29.7154C8.5525 29.9262 9.08416 30.1463 9.735 30.1463C10.3858 30.1463 10.9083 29.9262 11.4217 29.7154C11.8708 29.532 12.2833 29.3578 12.7508 29.3578C13.2183 29.3578 13.64 29.532 14.08 29.7154C14.5842 29.9262 15.1158 30.1463 15.7667 30.1463C16.4175 30.1463 16.94 29.9262 17.4533 29.7154C17.9025 29.532 18.315 29.3578 18.7825 29.3578C19.25 29.3578 19.5892 29.532 20.0108 29.7245C20.4783 29.9446 21.0008 30.1921 21.6883 30.1921C22.3758 30.1921 22.9258 29.9629 23.4758 29.752C23.9983 29.5503 24.4933 29.3578 25.0342 29.3578C25.575 29.3578 25.9508 29.5412 26.3725 29.7245C26.8033 29.9262 27.2983 30.1463 27.9492 30.1463C28.6 30.1463 29.1408 29.9079 29.6175 29.697C30.0392 29.5136 30.4425 29.3303 30.9008 29.3303C31.3133 29.3303 31.6067 29.477 31.9825 29.6603C32.4592 29.8987 32.9633 30.1371 33.8433 30.1463C34.65 30.1463 35.2733 29.9171 35.8142 29.7154C36.2633 29.5503 36.6575 29.4128 37.1158 29.3853C37.73 29.3578 38.1792 29.532 38.7108 29.7337C39.2242 29.9354 39.8108 30.1646 40.5808 30.1646C40.9383 30.1646 41.2317 30.1188 41.4975 30.0546C42.5333 27.5699 43.1017 24.8377 43.1017 21.9862C43.1017 10.3605 33.6417 0.898521 22.0183 0.898521C10.395 0.898521 0.93499 10.3605 0.93499 21.9862L0.916667 21.9954Z" fill="#99968D" style="fill:#99968D;fill:color(display-p3 0.6018 0.5874 0.5513);fill-opacity:1;"/>
</g>
</g>
<defs>
<clipPath id="clip0_3442_18383">
<rect width="44" height="44" fill="white" style="fill:white;fill-opacity:1;"/>
</clipPath>
<clipPath id="clip1_3442_18383">
<rect width="44" height="44" fill="white" style="fill:white;fill-opacity:1;"/>
</clipPath>
</defs>
</svg>
