<svg width="44" height="44" viewBox="0 0 44 44" fill="none" xmlns="http://www.w3.org/2000/svg">
<g clip-path="url(#clip0_3442_18406)">
<path d="M27.9033 17.1819C27.9033 16.21 28.7558 15.3574 29.7275 15.3574C30.6992 15.3574 31.5517 16.0909 31.5517 17.1819C31.5517 18.1538 30.6992 19.0065 29.7275 19.0065C28.7558 19.0065 27.9033 18.1538 27.9033 17.1819ZM4.26249 23.5174C4.38166 22.0504 4.8675 21.3261 4.8675 21.3261C4.8675 21.3261 6.20582 24.6176 11.4492 25.2228C13.8875 25.5895 17.6642 25.7087 21.3217 25.7087H23.6408L25.5933 14.248C25.6392 14.0371 25.8408 13.8721 26.0792 13.9271C26.345 13.9821 26.4733 14.193 26.4458 14.3763L25.9325 17.6037C25.9325 17.6037 26.0517 17.6128 26.0883 17.732C26.1617 17.9612 26.9683 20.4459 26.9683 20.4459L29.9933 19.5199C31.0567 19.5199 31.4692 20.2992 31.57 21.1794C31.57 21.1794 32.175 24.9019 32.175 25.021C32.2942 25.021 32.4225 24.9844 32.5417 24.9844C37.785 24.3792 39.1233 21.0877 39.1233 21.0877C39.1233 21.0877 39.6092 21.8212 39.7283 23.279C39.8383 25.1769 39.4258 26.974 37.6567 28.2025C37.51 28.1842 37.3542 28.175 37.18 28.175C36.7217 28.1934 36.3367 28.3401 35.8875 28.4959C35.3467 28.6885 34.7325 28.9085 33.9258 28.9177C33.0458 28.9085 32.5417 28.6701 32.0742 28.4318C31.6983 28.2484 31.405 28.1109 30.9925 28.1109C30.5342 28.1109 30.14 28.2851 29.7092 28.4684C29.2417 28.6701 28.7008 28.9085 28.05 28.9085C27.3992 28.9085 26.9133 28.6885 26.4825 28.4959C26.07 28.3126 25.6758 28.1292 25.1533 28.1292C24.6308 28.1292 24.1267 28.3217 23.6042 28.5234C23.045 28.7343 22.4767 28.9544 21.8167 28.9544C21.1567 28.9544 20.6066 28.7068 20.1483 28.4959C19.7358 28.3034 19.3783 28.1292 18.9292 28.1292C18.48 28.1292 18.0492 28.3034 17.6 28.4868C17.0958 28.6976 16.5733 28.9085 15.9225 28.9085C15.2717 28.9085 14.7492 28.6885 14.245 28.4868C13.805 28.3034 13.3833 28.1292 12.9158 28.1292C12.4483 28.1292 12.0358 28.3034 11.5867 28.4868C11.0825 28.6976 10.56 28.9085 9.90916 28.9085C9.25833 28.9085 8.73582 28.6885 8.23165 28.4868C7.79165 28.3034 7.37 28.1292 6.9025 28.1292C6.61833 28.1292 6.35249 28.1934 6.08665 28.2851C4.54665 27.0748 4.14332 25.4061 4.25332 23.5174H4.26249ZM29.2508 23.765L28.3983 24.6176C28.2792 24.7368 28.1508 24.8652 28.0317 24.8652L26.2075 25.4703C27.4267 25.4703 28.5267 25.3511 29.4983 25.3511L29.2508 23.765ZM24.7408 24.6176L27.1792 23.765L27.2983 23.6458L28.765 21.9404L28.6458 21.3353C28.6458 21.3353 27.2342 21.7387 26.9408 21.8212C26.6475 21.9037 26.3358 21.7937 26.2075 21.4545L25.6025 19.3824L24.75 24.6268L24.7408 24.6176ZM44 21.9954C44 34.1438 34.1458 44 22 44C9.85417 44 0 34.1438 0 21.9954C0 9.84705 9.84499 0 21.9908 0C34.1367 0 43.9908 9.85622 43.9908 22.0046L44 21.9954ZM0.916667 21.9954C0.916667 24.7001 1.43915 27.2857 2.36499 29.6695C2.83249 29.8529 3.32749 30.0179 3.88666 30.0179C4.52832 30.0179 5.05082 29.7979 5.54582 29.5962C5.98582 29.4128 6.39832 29.2386 6.86582 29.2386C7.33332 29.2386 7.74583 29.4128 8.18583 29.5962C8.68999 29.807 9.20332 30.0179 9.84499 30.0179C10.4867 30.0179 11.0092 29.7979 11.5042 29.5962C11.9442 29.4128 12.3567 29.2386 12.8242 29.2386C13.2917 29.2386 13.7042 29.4128 14.1442 29.5962C14.6483 29.807 15.1617 30.0179 15.8033 30.0179C16.445 30.0179 16.9675 29.7979 17.4625 29.5962C17.9025 29.4128 18.315 29.2386 18.7825 29.2386C19.25 29.2386 19.58 29.4036 19.9925 29.6053C20.4508 29.8254 20.9733 30.0638 21.6517 30.0638C22.33 30.0638 22.8708 29.8437 23.4208 29.6328C23.9433 29.4311 24.4291 29.2386 24.9608 29.2386C25.4925 29.2386 25.8683 29.4128 26.2808 29.6053C26.7117 29.7979 27.1975 30.0179 27.83 30.0179C28.4625 30.0179 29.0033 29.7887 29.4708 29.5778C29.8925 29.3945 30.2867 29.2203 30.7358 29.2203C31.1483 29.2203 31.4325 29.367 31.8083 29.5412C32.2758 29.7704 32.7708 30.0088 33.6508 30.0271C34.4483 30.0271 35.0625 29.7979 35.5942 29.6053C36.0342 29.4495 36.4283 29.3028 36.8775 29.2844C37.4825 29.2569 37.9317 29.4311 38.4542 29.6237C38.9675 29.8254 39.545 30.0454 40.2967 30.0454C40.8192 30.0454 41.2225 29.9537 41.5617 29.8345C42.5333 27.4049 43.0833 24.7643 43.0833 21.9954C43.0833 10.3697 33.6233 0.907689 22 0.907689C10.3767 0.907689 0.916667 10.3697 0.916667 21.9954Z" fill="#99968D" style="fill:#99968D;fill:color(display-p3 0.6018 0.5874 0.5513);fill-opacity:1;"/>
</g>
<defs>
<clipPath id="clip0_3442_18406">
<rect width="44" height="44" fill="white" style="fill:white;fill-opacity:1;"/>
</clipPath>
</defs>
</svg>
