<svg width="44" height="44" viewBox="0 0 44 44" fill="none" xmlns="http://www.w3.org/2000/svg">
<path d="M27.9033 17.1783C27.9033 16.2067 28.7558 15.3542 29.7275 15.3542C30.6992 15.3542 31.5517 16.0875 31.5517 17.1783C31.5517 18.15 30.6992 19.0025 29.7275 19.0025C28.7558 19.0025 27.9033 18.15 27.9033 17.1783ZM4.26249 23.5125C4.38166 22.0458 4.8675 21.3217 4.8675 21.3217C4.8675 21.3217 6.20582 24.6125 11.4492 25.2175C13.8875 25.5842 17.6642 25.7033 21.3217 25.7033H23.6408L25.5933 14.245C25.6392 14.0342 25.8408 13.8692 26.0792 13.9242C26.345 13.9792 26.4733 14.19 26.4458 14.3733L25.9325 17.6C25.9325 17.6 26.0517 17.6092 26.0883 17.7283C26.1617 17.9575 26.9683 20.4417 26.9683 20.4417L29.9933 19.5158C31.0567 19.5158 31.4692 20.295 31.57 21.175C31.57 21.175 32.175 24.8967 32.175 25.0158C32.2942 25.0158 32.4225 24.9792 32.5417 24.9792C37.785 24.3742 39.1233 21.0833 39.1233 21.0833C39.1233 21.0833 39.6092 21.8167 39.7283 23.2742C39.8383 25.1717 39.4258 26.9683 37.6567 28.1967C37.51 28.1783 37.3542 28.1692 37.18 28.1692C36.7217 28.1875 36.3367 28.3342 35.8875 28.49C35.3467 28.6825 34.7325 28.9025 33.9258 28.9117C33.0458 28.9025 32.5417 28.6642 32.0742 28.4258C31.6983 28.2425 31.405 28.105 30.9925 28.105C30.5342 28.105 30.14 28.2792 29.7092 28.4625C29.2417 28.6642 28.7008 28.9025 28.05 28.9025C27.3992 28.9025 26.9133 28.6825 26.4825 28.49C26.07 28.3067 25.6758 28.1233 25.1533 28.1233C24.6308 28.1233 24.1267 28.3158 23.6042 28.5175C23.045 28.7283 22.4767 28.9483 21.8167 28.9483C21.1567 28.9483 20.6066 28.7008 20.1483 28.49C19.7358 28.2975 19.3783 28.1233 18.9292 28.1233C18.48 28.1233 18.0492 28.2975 17.6 28.4808C17.0958 28.6917 16.5733 28.9025 15.9225 28.9025C15.2717 28.9025 14.7492 28.6825 14.245 28.4808C13.805 28.2975 13.3833 28.1233 12.9158 28.1233C12.4483 28.1233 12.0358 28.2975 11.5867 28.4808C11.0825 28.6917 10.56 28.9025 9.90916 28.9025C9.25833 28.9025 8.73582 28.6825 8.23165 28.4808C7.79165 28.2975 7.37 28.1233 6.9025 28.1233C6.61833 28.1233 6.35249 28.1875 6.08665 28.2792C4.54665 27.0692 4.14332 25.4008 4.25332 23.5125H4.26249ZM29.2508 23.76L28.3983 24.6125C28.2792 24.7317 28.1508 24.86 28.0317 24.86L26.2075 25.465C27.4267 25.465 28.5267 25.3458 29.4983 25.3458L29.2508 23.76ZM24.7408 24.6125L27.1792 23.76L27.2983 23.6408L28.765 21.9358L28.6458 21.3308C28.6458 21.3308 27.2342 21.7342 26.9408 21.8167C26.6475 21.8992 26.3358 21.7892 26.2075 21.45L25.6025 19.3783L24.75 24.6217L24.7408 24.6125ZM44 21.9908C44 34.1367 34.1458 43.9908 22 43.9908C9.85417 43.9908 0 34.1367 0 21.9908C0 9.845 9.84499 0 21.9908 0C34.1367 0 43.9908 9.85417 43.9908 22L44 21.9908ZM0.916667 21.9908C0.916667 24.695 1.43915 27.28 2.36499 29.6633C2.83249 29.8467 3.32749 30.0117 3.88666 30.0117C4.52832 30.0117 5.05082 29.7917 5.54582 29.59C5.98582 29.4067 6.39832 29.2325 6.86582 29.2325C7.33332 29.2325 7.74583 29.4067 8.18583 29.59C8.68999 29.8008 9.20332 30.0117 9.84499 30.0117C10.4867 30.0117 11.0092 29.7917 11.5042 29.59C11.9442 29.4067 12.3567 29.2325 12.8242 29.2325C13.2917 29.2325 13.7042 29.4067 14.1442 29.59C14.6483 29.8008 15.1617 30.0117 15.8033 30.0117C16.445 30.0117 16.9675 29.7917 17.4625 29.59C17.9025 29.4067 18.315 29.2325 18.7825 29.2325C19.25 29.2325 19.58 29.3975 19.9925 29.5992C20.4508 29.8192 20.9733 30.0575 21.6517 30.0575C22.33 30.0575 22.8708 29.8375 23.4208 29.6267C23.9433 29.425 24.4291 29.2325 24.9608 29.2325C25.4925 29.2325 25.8683 29.4067 26.2808 29.5992C26.7117 29.7917 27.1975 30.0117 27.83 30.0117C28.4625 30.0117 29.0033 29.7825 29.4708 29.5717C29.8925 29.3883 30.2867 29.2142 30.7358 29.2142C31.1483 29.2142 31.4325 29.3608 31.8083 29.535C32.2758 29.7642 32.7708 30.0025 33.6508 30.0208C34.4483 30.0208 35.0625 29.7917 35.5942 29.5992C36.0342 29.4433 36.4283 29.2967 36.8775 29.2783C37.4825 29.2508 37.9317 29.425 38.4542 29.6175C38.9675 29.8192 39.545 30.0392 40.2967 30.0392C40.8192 30.0392 41.2225 29.9475 41.5617 29.8283C42.5333 27.3992 43.0833 24.7592 43.0833 21.9908C43.0833 10.3675 33.6233 0.9075 22 0.9075C10.3767 0.9075 0.916667 10.3675 0.916667 21.9908Z" fill="#986648" style="fill:#986648;fill:color(display-p3 0.5961 0.4000 0.2824);fill-opacity:1;"/>
</svg>
