<svg width="44" height="44" viewBox="0 0 44 44" fill="none" xmlns="http://www.w3.org/2000/svg">
<path d="M44 21.9954C44 9.85211 34.1458 0 22 0C13.2733 0 5.72916 5.08644 2.1725 12.4457C2.1725 12.4457 2.1725 12.4457 2.1725 12.4549C2.1725 12.4732 2.16333 12.4824 2.15417 12.5007C0.779165 15.3693 0 18.5861 0 21.9679C0 21.9771 0.00916555 22.7469 0.0274989 23.0952C0.0274989 23.0952 0.0274989 23.1135 0.0274989 23.1318C0.614166 34.5236 9.86333 43.6242 21.3217 43.9725C21.56 43.9908 21.7892 44 22 44C22.2108 44 22.4217 43.9908 22.6508 43.9725C34.5033 43.6242 44 33.9188 44 21.9954ZM1.44833 17.3031H1.46667C1.97083 17.5047 2.45666 17.688 2.96083 17.688C3.465 17.688 3.91417 17.5047 4.39083 17.3031C4.9225 17.0831 5.48167 16.854 6.16 16.854C6.83833 16.854 7.39749 17.0831 7.92916 17.3031C8.40583 17.4955 8.855 17.688 9.35917 17.688C9.86333 17.688 10.3125 17.5047 10.7892 17.3031C11.3208 17.0831 11.88 16.854 12.5583 16.854C13.2367 16.854 13.7958 17.0831 14.3275 17.3031C14.8042 17.4955 15.2533 17.688 15.7575 17.688C16.2617 17.688 16.7108 17.5047 17.1875 17.3031C17.7192 17.0831 18.2783 16.854 18.9567 16.854C19.635 16.854 20.185 17.1106 20.6525 17.3306C21.0925 17.5413 21.5142 17.7338 22.0367 17.7338C22.5592 17.7338 23.0725 17.5413 23.6042 17.3306C24.2183 17.0923 24.8508 16.854 25.5842 16.854C26.3175 16.854 26.895 17.1014 27.3808 17.3214C27.8117 17.5139 28.1875 17.6788 28.6642 17.6788C29.1408 17.6788 29.5992 17.4864 30.0575 17.2939C30.58 17.0648 31.1117 16.8357 31.7992 16.8357C32.4867 16.8357 32.9175 17.0556 33.3575 17.2756C33.8067 17.4955 34.2192 17.688 34.9158 17.6971C35.6217 17.6971 36.1442 17.5047 36.7033 17.3031C37.2075 17.1198 37.73 16.9365 38.3533 16.909C39.1967 16.8723 39.82 17.1014 40.4158 17.3306C40.9383 17.5322 41.4242 17.7155 42.0658 17.7155C42.2767 17.7155 42.4508 17.6971 42.6158 17.6697C42.68 17.9629 42.7258 18.247 42.7717 18.5403C42.5608 18.577 42.3225 18.6045 42.0567 18.6045C41.25 18.6045 40.6358 18.3662 40.0858 18.1645C39.5267 17.9538 39.0408 17.7613 38.3808 17.798C37.8858 17.8255 37.4458 17.9813 36.9875 18.1462C36.41 18.3478 35.7592 18.5861 34.9067 18.5953C34.8883 18.5953 34.87 18.5953 34.8608 18.5953C33.9992 18.5953 33.44 18.3295 32.9542 18.0912C32.5508 17.8988 32.23 17.743 31.79 17.743C31.295 17.743 30.8642 17.9263 30.4058 18.1279C29.9108 18.3478 29.3425 18.5861 28.655 18.5861C27.9675 18.5861 27.4817 18.3662 27.005 18.1462C26.5558 17.9446 26.1342 17.7521 25.5658 17.7521C24.9975 17.7521 24.4658 17.9538 23.8975 18.1737C23.3108 18.4028 22.6967 18.632 22.0092 18.632C21.3217 18.632 20.735 18.3753 20.2492 18.1462C19.8 17.9354 19.415 17.7521 18.9292 17.7521C18.4433 17.7521 17.9758 17.9354 17.4992 18.1371C16.9675 18.357 16.4083 18.5861 15.73 18.5861C15.0517 18.5861 14.4925 18.357 13.9608 18.1371C13.4842 17.9446 13.035 17.7521 12.5308 17.7521C12.0267 17.7521 11.5775 17.9354 11.1008 18.1371C10.5692 18.357 10.01 18.5861 9.33167 18.5861C8.65333 18.5861 8.09417 18.357 7.5625 18.1371C7.08583 17.9446 6.63666 17.7521 6.1325 17.7521C5.62833 17.7521 5.17916 17.9354 4.7025 18.1371C4.17083 18.357 3.61166 18.5861 2.93333 18.5861C2.30083 18.5861 1.76 18.3937 1.22833 18.1829C1.28333 17.8896 1.33833 17.5963 1.41167 17.3031H1.44833ZM14.7033 2.21787C14.7033 2.21787 14.7583 2.19954 14.7767 2.19038C15.6933 1.85128 16.6375 1.5855 17.6092 1.37471C17.7008 1.35638 17.8017 1.33805 17.8933 1.31973C18.5075 1.20058 19.14 1.09977 19.7725 1.03562C19.8 1.03562 19.8183 1.03562 19.8458 1.03562C20.1575 1.00812 20.4783 0.980629 20.79 0.9623C20.9183 0.9623 21.0558 0.953135 21.1842 0.94397C21.45 0.934805 21.725 0.925641 21.9908 0.925641C22.2567 0.925641 22.5133 0.934805 22.77 0.94397C22.9167 0.94397 23.0633 0.953135 23.21 0.9623C23.5217 0.980629 23.8242 0.998959 24.1267 1.03562C24.1908 1.03562 24.2642 1.05395 24.3283 1.06311C24.9058 1.12727 25.4833 1.21891 26.0517 1.32889C26.18 1.35638 26.3083 1.38388 26.4367 1.41137C27.0142 1.53051 27.5733 1.67715 28.1325 1.85128C28.1783 1.86961 28.2333 1.87878 28.2792 1.8971C28.5817 1.98875 28.8842 2.09873 29.1867 2.20871C29.26 2.2362 29.3242 2.2637 29.3975 2.29119C29.9475 2.49281 30.4883 2.72193 31.0108 2.97855C31.075 3.00604 31.1392 3.0427 31.2033 3.07019C32.0833 3.50094 32.9358 3.98667 33.7425 4.53656C33.77 4.55488 33.7975 4.57321 33.825 4.59154C37.6658 7.2035 40.5992 11.0435 42.0567 15.5526C41.2683 15.5526 40.6542 15.3143 40.1133 15.1127C39.5542 14.9019 39.0683 14.7094 38.4083 14.7461C37.9133 14.7736 37.4733 14.9294 37.015 15.0944C36.4375 15.296 35.7867 15.5343 34.9433 15.5434C34.0083 15.5434 33.4858 15.2777 32.9908 15.0394C32.5875 14.8469 32.2667 14.6911 31.8267 14.6911C31.3317 14.6911 30.9008 14.8744 30.4425 15.076C29.9475 15.296 29.3792 15.5343 28.6917 15.5343C28.0042 15.5343 27.5183 15.3143 27.0417 15.0944C26.5925 14.8927 26.1708 14.7003 25.6025 14.7003C25.0342 14.7003 24.5025 14.9019 23.9342 15.1219C23.3475 15.351 22.7333 15.5801 22.0458 15.5801C21.3583 15.5801 20.7717 15.3235 20.2858 15.0944C19.8367 14.8836 19.4517 14.7003 18.9658 14.7003C18.48 14.7003 18.0125 14.8836 17.5358 15.0852C17.0042 15.3051 16.445 15.5343 15.7667 15.5343C15.0883 15.5343 14.5292 15.3051 13.9975 15.0852C13.5208 14.8927 13.0717 14.7003 12.5675 14.7003C12.0633 14.7003 11.6142 14.8836 11.1375 15.0852C10.6058 15.3051 10.0467 15.5343 9.36833 15.5343C8.69 15.5343 8.13083 15.3051 7.59917 15.0852C7.1225 14.8927 6.67333 14.7003 6.16916 14.7003C5.665 14.7003 5.21583 14.8836 4.73917 15.0852C4.2075 15.3051 3.64833 15.5343 2.97 15.5343C2.62166 15.5343 2.31 15.4701 1.99833 15.3876C4.02417 9.32972 8.72667 4.48157 14.7033 2.27286V2.21787ZM1.46667 20.4191C1.97083 20.6207 2.45666 20.804 2.96083 20.804C3.465 20.804 3.91417 20.6207 4.39083 20.4191C4.9225 20.1991 5.48167 19.97 6.16 19.97C6.83833 19.97 7.39749 20.1991 7.92916 20.4191C8.40583 20.6115 8.855 20.804 9.35917 20.804C9.86333 20.804 10.3125 20.6207 10.7892 20.4191C11.3208 20.1991 11.88 19.97 12.5583 19.97C13.2367 19.97 13.7958 20.1991 14.3275 20.4191C14.8042 20.6115 15.2533 20.804 15.7575 20.804C16.2617 20.804 16.7108 20.6207 17.1875 20.4191C17.7192 20.1991 18.2783 19.97 18.9567 19.97C19.635 19.97 20.185 20.2266 20.6525 20.4466C21.0925 20.6574 21.5142 20.8498 22.0367 20.8498C22.5592 20.8498 23.0725 20.6574 23.6042 20.4466C24.2183 20.2083 24.8508 19.97 25.5842 19.97C26.3175 19.97 26.895 20.2175 27.3808 20.4374C27.8117 20.6299 28.1875 20.7948 28.6642 20.7948C29.1408 20.7948 29.5992 20.6024 30.0575 20.4099C30.58 20.1808 31.1117 19.9517 31.7992 19.9517C32.4867 19.9517 32.9175 20.1716 33.3575 20.3916C33.8067 20.6115 34.2192 20.804 34.9158 20.8132C35.6217 20.8132 36.1442 20.6207 36.7033 20.4191C37.2075 20.2358 37.73 20.0525 38.3533 20.025C39.1967 19.9883 39.82 20.2175 40.4158 20.4466C40.9383 20.6482 41.4242 20.8315 42.0658 20.8315C42.4508 20.8315 42.7442 20.7765 43.0192 20.694C43.0375 20.9965 43.0467 21.2989 43.0558 21.6013C42.7717 21.6747 42.4508 21.7205 42.0658 21.7205C41.2592 21.7205 40.645 21.4822 40.095 21.2806C39.5358 21.0698 39.05 20.8773 38.39 20.914C37.895 20.9415 37.455 21.0973 36.9967 21.2622C36.4192 21.4639 35.7683 21.7021 34.9158 21.7113C34.8975 21.7113 34.8792 21.7113 34.87 21.7113C34.0083 21.7113 33.4492 21.4455 32.9633 21.2072C32.56 21.0148 32.2392 20.859 31.7992 20.859C31.3042 20.859 30.8733 21.0423 30.415 21.2439C29.92 21.4639 29.3517 21.7021 28.6642 21.7021C27.9767 21.7021 27.4908 21.4822 27.0142 21.2622C26.565 21.0606 26.1433 20.8773 25.575 20.8773C25.0067 20.8773 24.475 21.0789 23.9067 21.2989C23.32 21.528 22.7058 21.7571 22.0183 21.7571C21.3308 21.7571 20.7442 21.5005 20.2583 21.2714C19.8092 21.0606 19.4242 20.8773 18.9383 20.8773C18.4525 20.8773 17.985 21.0606 17.5083 21.2622C16.9767 21.4822 16.4175 21.7113 15.7392 21.7113C15.0608 21.7113 14.5017 21.4822 13.97 21.2622C13.4933 21.0698 13.0442 20.8773 12.54 20.8773C12.0358 20.8773 11.5867 21.0606 11.11 21.2622C10.5783 21.4822 10.0192 21.7113 9.34083 21.7113C8.6625 21.7113 8.10333 21.4822 7.57166 21.2622C7.095 21.0698 6.64583 20.8773 6.14166 20.8773C5.6375 20.8773 5.18833 21.0606 4.71167 21.2622C4.18 21.4822 3.62083 21.7113 2.9425 21.7113C2.26417 21.7113 1.68667 21.4822 1.11833 21.2714C1.045 21.2439 0.980831 21.2164 0.907498 21.1889C0.916665 20.8773 0.944162 20.5749 0.962496 20.2633C1.1275 20.3183 1.28333 20.3733 1.43917 20.4374L1.46667 20.4191ZM0.962496 23.3426C1.13666 23.3976 1.30167 23.4618 1.46667 23.5259C1.97083 23.7276 2.45666 23.9109 2.96083 23.9109C3.465 23.9109 3.91417 23.7276 4.39083 23.5259C4.9225 23.306 5.48167 23.0769 6.16 23.0769C6.83833 23.0769 7.39749 23.306 7.92916 23.5259C8.40583 23.7184 8.855 23.9109 9.35917 23.9109C9.86333 23.9109 10.3125 23.7276 10.7892 23.5259C11.3208 23.306 11.88 23.0769 12.5583 23.0769C13.2367 23.0769 13.7958 23.306 14.3275 23.5259C14.8042 23.7184 15.2533 23.9109 15.7575 23.9109C16.2617 23.9109 16.7108 23.7276 17.1875 23.5259C17.7192 23.306 18.2783 23.0769 18.9567 23.0769C19.635 23.0769 20.185 23.3335 20.6525 23.5534C21.0925 23.7642 21.5142 23.9567 22.0367 23.9567C22.5592 23.9567 23.0725 23.7642 23.6042 23.5534C24.2183 23.3151 24.8508 23.0769 25.5842 23.0769C26.3175 23.0769 26.895 23.3243 27.3808 23.5443C27.8117 23.7367 28.1875 23.9017 28.6642 23.9017C29.1408 23.9017 29.5992 23.7092 30.0575 23.5168C30.58 23.2876 31.1117 23.0585 31.7992 23.0585C32.4867 23.0585 32.9175 23.2785 33.3575 23.4984C33.8067 23.7184 34.2192 23.9109 34.9158 23.92C35.6217 23.92 36.1442 23.7276 36.7033 23.5259C37.2075 23.3426 37.7208 23.1593 38.3533 23.1318C39.1967 23.086 39.82 23.3243 40.4158 23.5534C40.9383 23.7551 41.4242 23.9383 42.0658 23.9383C42.4233 23.9383 42.7167 23.8925 42.9825 23.8192C42.955 24.1308 42.9183 24.4424 42.8817 24.7448C42.6433 24.7907 42.3775 24.8273 42.0658 24.8273C41.2592 24.8273 40.645 24.589 40.095 24.3874C39.5358 24.1766 39.05 24.0025 38.39 24.0208C37.895 24.0483 37.455 24.2041 36.9967 24.3691C36.4192 24.5707 35.7683 24.809 34.925 24.8182C33.99 24.8182 33.4675 24.5524 32.9725 24.3141C32.5692 24.1216 32.2483 23.9658 31.8083 23.9658C31.3133 23.9658 30.8825 24.1491 30.4242 24.3508C29.9292 24.5707 29.3608 24.809 28.6733 24.809C27.9858 24.809 27.5 24.589 27.0233 24.3691C26.5742 24.1675 26.1525 23.9842 25.5842 23.9842C25.0158 23.9842 24.4842 24.1858 23.9158 24.4058C23.3292 24.6349 22.715 24.864 22.0275 24.864C21.34 24.864 20.7533 24.6074 20.2675 24.3783C19.8183 24.1675 19.4333 23.9842 18.9475 23.9842C18.4617 23.9842 17.9942 24.1675 17.5175 24.3691C16.9858 24.589 16.4267 24.8182 15.7483 24.8182C15.07 24.8182 14.5108 24.589 13.9792 24.3691C13.5025 24.1766 13.0533 23.9842 12.5492 23.9842C12.045 23.9842 11.5958 24.1675 11.1192 24.3691C10.5875 24.589 10.0283 24.8182 9.35 24.8182C8.67166 24.8182 8.1125 24.589 7.58083 24.3691C7.10416 24.1766 6.655 23.9842 6.15083 23.9842C5.64667 23.9842 5.19749 24.1675 4.72083 24.3691C4.18916 24.589 3.63 24.8182 2.95167 24.8182C2.27333 24.8182 1.69583 24.589 1.1275 24.3691C1.09083 24.3599 1.05416 24.3416 1.02666 24.3324C0.989996 24.0117 0.962499 23.6909 0.944166 23.361L0.962496 23.3426ZM1.43 26.6145C1.43 26.6145 1.4575 26.6236 1.46667 26.6328C1.97083 26.8344 2.45666 27.0177 2.96083 27.0177C3.465 27.0177 3.91417 26.8344 4.39083 26.6328C4.9225 26.4128 5.48167 26.1837 6.16 26.1837C6.83833 26.1837 7.39749 26.4128 7.92916 26.6328C8.40583 26.8252 8.855 27.0177 9.35917 27.0177C9.86333 27.0177 10.3125 26.8344 10.7892 26.6328C11.3208 26.4128 11.88 26.1837 12.5583 26.1837C13.2367 26.1837 13.7958 26.4128 14.3275 26.6328C14.8042 26.8252 15.2533 27.0177 15.7575 27.0177C16.2617 27.0177 16.7108 26.8344 17.1875 26.6328C17.7192 26.4128 18.2783 26.1837 18.9567 26.1837C19.635 26.1837 20.185 26.4403 20.6525 26.6603C21.0925 26.8711 21.5142 27.0635 22.0367 27.0635C22.5592 27.0635 23.0725 26.8711 23.6042 26.6603C24.2183 26.422 24.8508 26.1837 25.5842 26.1837C26.3175 26.1837 26.895 26.4312 27.3808 26.6511C27.8117 26.8436 28.1875 27.0085 28.6642 27.0085C29.1408 27.0085 29.5992 26.8161 30.0575 26.6236C30.58 26.3945 31.1117 26.1654 31.7992 26.1654C32.4867 26.1654 32.9175 26.3853 33.3575 26.6053C33.8067 26.8252 34.2192 27.0085 34.9158 27.0269C35.6217 27.0269 36.1442 26.8344 36.7033 26.6328C37.2075 26.4495 37.7208 26.2662 38.3533 26.2387C39.1967 26.1929 39.82 26.4312 40.4158 26.6603C40.9383 26.8619 41.4242 27.0452 42.0658 27.0452C42.2033 27.0452 42.3317 27.0452 42.4508 27.0269C42.4325 27.1002 42.4142 27.1827 42.3958 27.2652C42.3958 27.2743 42.3958 27.2927 42.3867 27.3018C42.3317 27.5126 42.2675 27.7234 42.2125 27.925C42.1667 27.925 42.1208 27.9342 42.0658 27.9342C41.2592 27.9342 40.645 27.6959 40.095 27.4943C39.5358 27.2835 39.05 27.1094 38.39 27.1277C37.895 27.1552 37.455 27.311 36.9967 27.4759C36.4192 27.6776 35.7683 27.9159 34.925 27.925H34.8792C34.0175 27.925 33.4583 27.6592 32.9725 27.4118C32.5692 27.2193 32.2483 27.0635 31.8083 27.0635C31.3133 27.0635 30.8825 27.2468 30.4242 27.4485C29.9292 27.6684 29.3608 27.9067 28.6733 27.9067C27.9858 27.9067 27.5 27.6867 27.0233 27.4668C26.5742 27.2652 26.1525 27.0819 25.5842 27.0819C25.0158 27.0819 24.4842 27.2835 23.9158 27.5034C23.3292 27.7326 22.715 27.9617 22.0275 27.9617C21.34 27.9617 20.7533 27.7051 20.2675 27.4759C19.8183 27.2652 19.4333 27.0819 18.9475 27.0819C18.4617 27.0819 17.9942 27.2652 17.5175 27.4668C16.9858 27.6867 16.4267 27.9159 15.7483 27.9159C15.07 27.9159 14.5108 27.6867 13.9792 27.4668C13.5025 27.2743 13.0533 27.0819 12.5492 27.0819C12.045 27.0819 11.5958 27.2652 11.1192 27.4668C10.5875 27.6867 10.0283 27.9159 9.35 27.9159C8.67166 27.9159 8.1125 27.6867 7.58083 27.4668C7.10416 27.2743 6.655 27.0819 6.15083 27.0819C5.64667 27.0819 5.19749 27.2652 4.72083 27.4668C4.18916 27.6867 3.63 27.9159 2.95167 27.9159C2.49333 27.9159 2.07166 27.8059 1.67749 27.6684C1.58583 27.3293 1.49417 26.981 1.41167 26.6236L1.43 26.6145ZM2.52083 30.0696C2.6675 30.0971 2.81416 30.1154 2.97 30.1154C3.47416 30.1154 3.92333 29.9321 4.4 29.7305C4.93166 29.5105 5.49083 29.2814 6.16916 29.2814C6.8475 29.2814 7.40666 29.5105 7.93833 29.7305C8.415 29.9229 8.86417 30.1154 9.36833 30.1154C9.8725 30.1154 10.3217 29.9321 10.7983 29.7305C11.33 29.5105 11.8892 29.2814 12.5675 29.2814C13.2458 29.2814 13.805 29.5105 14.3367 29.7305C14.8133 29.9229 15.2625 30.1154 15.7667 30.1154C16.2708 30.1154 16.72 29.9321 17.1967 29.7305C17.7283 29.5105 18.2875 29.2814 18.9658 29.2814C19.6442 29.2814 20.1942 29.538 20.6617 29.758C21.1017 29.9688 21.5233 30.1612 22.0458 30.1612C22.5683 30.1612 23.0817 29.9688 23.6133 29.758C24.2275 29.5197 24.86 29.2814 25.5933 29.2814C26.3267 29.2814 26.9042 29.5288 27.39 29.7488C27.8208 29.9413 28.1967 30.1062 28.6733 30.1062C29.15 30.1062 29.6083 29.9138 30.0667 29.7213C30.5892 29.4922 31.1208 29.2631 31.8083 29.2631C32.4958 29.2631 32.9267 29.483 33.3667 29.703C33.8158 29.9229 34.2283 30.1062 34.925 30.1246C35.6308 30.1246 36.1533 29.9321 36.7125 29.7305C37.2167 29.5472 37.73 29.3639 38.3625 29.3364C39.2058 29.2906 39.8292 29.5289 40.425 29.758C40.7642 29.8863 41.0942 30.0054 41.4608 30.0787C41.4517 30.1062 41.4425 30.1337 41.4333 30.1521C41.3692 30.2987 41.305 30.4453 41.2317 30.592C41.1858 30.6928 41.14 30.8028 41.0942 30.9036C40.7367 30.8211 40.4067 30.7019 40.1133 30.5828C39.5542 30.372 39.0683 30.1887 38.4083 30.2162C37.9133 30.2437 37.4733 30.3995 37.015 30.5645C36.4375 30.7661 35.7867 31.0044 34.9433 31.0135C34.0083 31.0135 33.4858 30.7478 32.9908 30.5003C32.5875 30.3079 32.2667 30.1521 31.8267 30.1521C31.3317 30.1521 30.9008 30.3353 30.4425 30.537C29.9475 30.7569 29.3792 30.9952 28.6917 30.9952C28.0042 30.9952 27.5183 30.7753 27.0417 30.5553C26.5925 30.3537 26.1708 30.1704 25.6025 30.1704C25.0342 30.1704 24.5025 30.372 23.9342 30.592C23.3475 30.8211 22.7333 31.0502 22.0458 31.0502C21.3583 31.0502 20.7717 30.7936 20.2858 30.5645C19.8367 30.3537 19.4517 30.1704 18.9658 30.1704C18.48 30.1704 18.0125 30.3537 17.5358 30.5553C17.0042 30.7753 16.445 31.0044 15.7667 31.0044C15.0883 31.0044 14.5292 30.7753 13.9975 30.5553C13.5208 30.3628 13.0717 30.1704 12.5675 30.1704C12.0633 30.1704 11.6142 30.3537 11.1375 30.5553C10.6058 30.7753 10.0467 31.0044 9.36833 31.0044C8.69 31.0044 8.13083 30.7753 7.59917 30.5553C7.1225 30.3628 6.67333 30.1704 6.16916 30.1704C5.665 30.1704 5.21583 30.3537 4.73917 30.5553C4.2075 30.7753 3.64833 31.0044 2.97 31.0044C2.96083 31.0044 2.95167 31.0044 2.9425 31.0044C2.79583 30.6928 2.65833 30.3903 2.52999 30.0696H2.52083ZM27.0417 39.8759C26.5925 39.6742 26.1708 39.4909 25.6025 39.4909C25.0342 39.4909 24.5025 39.6926 23.9342 39.9125C23.3475 40.1416 22.7333 40.3708 22.0458 40.3708C21.3583 40.3708 20.7717 40.1141 20.2858 39.885C19.8367 39.6742 19.4517 39.4909 18.9658 39.4909C18.48 39.4909 18.0125 39.6742 17.5358 39.8759C17.0042 40.0958 16.445 40.3249 15.7667 40.3249C15.0883 40.3249 14.5292 40.0958 13.9975 39.8759C13.5208 39.6834 13.0717 39.4909 12.5675 39.4909C12.0633 39.4909 11.6142 39.6742 11.1375 39.8759C11.0825 39.9034 11.0183 39.9217 10.9542 39.94C10.6425 39.7476 10.3308 39.5459 10.0283 39.3351C10.285 39.2618 10.5417 39.161 10.7983 39.0602C11.33 38.8402 11.8892 38.6111 12.5675 38.6111C13.2458 38.6111 13.805 38.8402 14.3367 39.0602C14.8133 39.2527 15.2625 39.4451 15.7667 39.4451C16.2708 39.4451 16.72 39.2618 17.1967 39.0602C17.7283 38.8402 18.2875 38.6111 18.9658 38.6111C19.6442 38.6111 20.1942 38.8677 20.6617 39.0877C21.1017 39.2985 21.5233 39.4909 22.0458 39.4909C22.5683 39.4909 23.0817 39.2985 23.6133 39.0877C24.2275 38.8494 24.86 38.6111 25.5933 38.6111C26.3267 38.6111 26.9042 38.8586 27.39 39.0785C27.8208 39.271 28.1967 39.436 28.6733 39.436C29.15 39.436 29.6083 39.2435 30.0667 39.051C30.5892 38.8219 31.1208 38.5928 31.8083 38.5928C32.4958 38.5928 32.9267 38.8127 33.3667 39.0327C33.5775 39.1335 33.7792 39.2252 34.0083 39.2985C33.715 39.5001 33.4125 39.7017 33.11 39.885C33.0642 39.8667 33.0183 39.8484 32.9725 39.8209C32.5692 39.6284 32.2483 39.4726 31.8083 39.4726C31.3133 39.4726 30.8825 39.6559 30.4242 39.8575C29.9292 40.0775 29.3608 40.3158 28.6733 40.3158C27.9858 40.3158 27.5 40.0958 27.0233 39.8759H27.0417ZM27.6558 42.277C27.1517 42.4145 26.6383 42.5428 26.1158 42.6436C25.9508 42.607 25.7858 42.5795 25.6025 42.5795C25.08 42.5795 24.5942 42.7536 24.09 42.9461C23.4025 43.0102 22.7058 43.0469 22 43.0469C21.4225 43.0469 20.8633 43.0194 20.295 42.9735C19.8458 42.7628 19.4608 42.5795 18.975 42.5795C18.7183 42.5795 18.4708 42.6253 18.2325 42.6986C17.6917 42.5978 17.1692 42.4878 16.6467 42.3503C16.83 42.2862 17.0225 42.2129 17.215 42.1304C17.7467 41.9104 18.3058 41.6813 18.9842 41.6813C19.6625 41.6813 20.2125 41.9379 20.68 42.1579C21.12 42.3687 21.5417 42.5611 22.0642 42.5611C22.5867 42.5611 23.1 42.3687 23.6317 42.1579C24.2458 41.9196 24.8783 41.6813 25.6117 41.6813C26.345 41.6813 26.9225 41.9288 27.4083 42.1487C27.4908 42.1854 27.5825 42.222 27.665 42.2587L27.6558 42.277ZM32.9908 36.714C32.5875 36.5216 32.2667 36.3658 31.8267 36.3658C31.3317 36.3658 30.9008 36.5491 30.4425 36.7507C29.9475 36.9706 29.3792 37.2089 28.6917 37.2089C28.0042 37.2089 27.5183 36.989 27.0417 36.769C26.5925 36.5674 26.1708 36.3841 25.6025 36.3841C25.0342 36.3841 24.5025 36.5857 23.9342 36.8057C23.3475 37.0348 22.7333 37.2639 22.0458 37.2639C21.3583 37.2639 20.7717 37.0073 20.2858 36.7782C19.8367 36.5674 19.4517 36.3841 18.9658 36.3841C18.48 36.3841 18.0125 36.5674 17.5358 36.769C17.0042 36.989 16.445 37.2181 15.7667 37.2181C15.0883 37.2181 14.5292 36.989 13.9975 36.769C13.5208 36.5765 13.0717 36.3841 12.5675 36.3841C12.0633 36.3841 11.6142 36.5674 11.1375 36.769C10.6058 36.989 10.0467 37.2181 9.36833 37.2181C8.69 37.2181 8.13083 36.989 7.59917 36.769C7.2875 36.6407 6.985 36.5216 6.67333 36.4482C6.38917 36.155 6.11417 35.8434 5.8575 35.5318C5.9675 35.5226 6.05917 35.4951 6.17833 35.4951C6.85666 35.4951 7.41583 35.7242 7.9475 35.9442C8.42416 36.1366 8.87333 36.3291 9.3775 36.3291C9.88166 36.3291 10.3308 36.1458 10.8075 35.9442C11.3392 35.7242 11.8983 35.4951 12.5767 35.4951C13.255 35.4951 13.8142 35.7242 14.3458 35.9442C14.8225 36.1366 15.2717 36.3291 15.7758 36.3291C16.28 36.3291 16.7292 36.1458 17.2058 35.9442C17.7375 35.7242 18.2967 35.4951 18.975 35.4951C19.6533 35.4951 20.2033 35.7517 20.6708 35.9717C21.1108 36.1825 21.5325 36.3749 22.055 36.3749C22.5775 36.3749 23.0908 36.1825 23.6225 35.9717C24.2367 35.7334 24.8692 35.4951 25.6025 35.4951C26.3358 35.4951 26.9133 35.7426 27.3992 35.9625C27.83 36.155 28.2058 36.3199 28.6825 36.3199C29.1592 36.3199 29.6175 36.1275 30.0758 35.935C30.5983 35.7059 31.13 35.4768 31.8175 35.4768C32.505 35.4768 32.9358 35.6967 33.3758 35.9167C33.825 36.1366 34.2375 36.3199 34.9342 36.3383C35.64 36.3383 36.1625 36.1458 36.7217 35.9442C37.1525 35.7884 37.5925 35.6417 38.1058 35.5776C37.7575 35.99 37.3817 36.3933 37.0058 36.7873C36.4375 36.989 35.7867 37.2181 34.9433 37.2272C34.0083 37.2272 33.4858 36.9615 32.9908 36.714ZM4.015 32.9931C4.14333 32.9473 4.27166 32.8923 4.4 32.8373C4.93166 32.6174 5.49083 32.3883 6.16916 32.3883C6.8475 32.3883 7.40666 32.6174 7.93833 32.8373C8.415 33.0298 8.86417 33.2222 9.36833 33.2222C9.8725 33.2222 10.3217 33.039 10.7983 32.8373C11.33 32.6174 11.8892 32.3883 12.5675 32.3883C13.2458 32.3883 13.805 32.6174 14.3367 32.8373C14.8133 33.0298 15.2625 33.2222 15.7667 33.2222C16.2708 33.2222 16.72 33.039 17.1967 32.8373C17.7283 32.6174 18.2875 32.3883 18.9658 32.3883C19.6442 32.3883 20.1942 32.6449 20.6617 32.8648C21.1017 33.0756 21.5233 33.2681 22.0458 33.2681C22.5683 33.2681 23.0817 33.0756 23.6133 32.8648C24.2275 32.6265 24.86 32.3883 25.5933 32.3883C26.3267 32.3883 26.9042 32.6357 27.39 32.8557C27.8208 33.0481 28.1967 33.2131 28.6733 33.2131C29.15 33.2131 29.6083 33.0206 30.0667 32.8282C30.5892 32.599 31.1208 32.3699 31.8083 32.3699C32.4958 32.3699 32.9267 32.5899 33.3667 32.8098C33.8158 33.0298 34.2283 33.2131 34.925 33.2314C35.6308 33.2314 36.1533 33.039 36.7125 32.8373C37.2167 32.654 37.73 32.4707 38.3625 32.4432C39.0683 32.4066 39.6092 32.5624 40.1225 32.7548C39.9667 33.0206 39.8017 33.2772 39.6367 33.5247C39.2517 33.3964 38.8758 33.3139 38.4083 33.3322C37.9133 33.3597 37.4733 33.5155 37.015 33.6805C36.4375 33.8821 35.7867 34.1204 34.9433 34.1296H34.8975C34.0358 34.1296 33.4767 33.8638 32.9908 33.6163C32.5875 33.4239 32.2667 33.2681 31.8267 33.2681C31.3317 33.2681 30.9008 33.4514 30.4425 33.653C29.9475 33.8729 29.3792 34.1112 28.6917 34.1112C28.0042 34.1112 27.5183 33.8913 27.0417 33.6713C26.5925 33.4697 26.1708 33.2864 25.6025 33.2864C25.0342 33.2864 24.5025 33.488 23.9342 33.708C23.3475 33.9371 22.7333 34.1662 22.0458 34.1662C21.3583 34.1662 20.7717 33.9096 20.2858 33.6805C19.8367 33.4697 19.4517 33.2864 18.9658 33.2864C18.48 33.2864 18.0125 33.4697 17.5358 33.6713C17.0042 33.8913 16.445 34.1204 15.7667 34.1204C15.0883 34.1204 14.5292 33.8913 13.9975 33.6713C13.5208 33.4789 13.0717 33.2864 12.5675 33.2864C12.0633 33.2864 11.6142 33.4697 11.1375 33.6713C10.6058 33.8913 10.0467 34.1204 9.36833 34.1204C8.69 34.1204 8.13083 33.8913 7.59917 33.6713C7.1225 33.4789 6.67333 33.2864 6.16916 33.2864C5.665 33.2864 5.21583 33.4697 4.73917 33.6713C4.66583 33.6988 4.58333 33.7355 4.50083 33.763C4.39083 33.598 4.28083 33.433 4.18 33.2589C4.125 33.1764 4.07 33.0848 4.015 33.0023V32.9931Z" fill="#99968D" style="fill:#99968D;fill:color(display-p3 0.6018 0.5874 0.5513);fill-opacity:1;"/>
</svg>
